<mxfile host="app.diagrams.net" modified="2023-09-11T02:09:50.039Z" agent="Mozilla/5.0 (Windows NT 10.0; Win64; x64) AppleWebKit/537.36 (KHTML, like Gecko) Chrome/116.0.0.0 Safari/537.36 Edg/116.0.1938.76" etag="FbvR5VhaFDN_cyMYbYeO" version="21.7.2" type="github" pages="4">
  <diagram name="第 1 页" id="lN5wvPdrlScL4VwBc2p3">
    <mxGraphModel dx="1426" dy="751" grid="1" gridSize="10" guides="1" tooltips="1" connect="1" arrows="1" fold="1" page="1" pageScale="1" pageWidth="827" pageHeight="1169" math="0" shadow="0">
      <root>
        <mxCell id="0" />
        <mxCell id="1" parent="0" />
        <mxCell id="YUPSVHvtMBNqmdSm2EEL-1" value="User" style="shape=umlActor;verticalLabelPosition=bottom;verticalAlign=top;html=1;outlineConnect=0;" parent="1" vertex="1">
          <mxGeometry x="60" y="56.5" width="20" height="45" as="geometry" />
        </mxCell>
        <mxCell id="YUPSVHvtMBNqmdSm2EEL-17" style="edgeStyle=none;rounded=0;orthogonalLoop=1;jettySize=auto;html=1;exitX=1;exitY=0.5;exitDx=0;exitDy=0;" parent="1" source="YUPSVHvtMBNqmdSm2EEL-2" target="YUPSVHvtMBNqmdSm2EEL-6" edge="1">
          <mxGeometry relative="1" as="geometry" />
        </mxCell>
        <mxCell id="YUPSVHvtMBNqmdSm2EEL-2" value="浏览器" style="ellipse;whiteSpace=wrap;html=1;aspect=fixed;" parent="1" vertex="1">
          <mxGeometry x="120" y="54" width="50" height="50" as="geometry" />
        </mxCell>
        <mxCell id="YUPSVHvtMBNqmdSm2EEL-3" value="" style="shape=link;html=1;rounded=0;dashed=1;" parent="1" edge="1">
          <mxGeometry width="100" relative="1" as="geometry">
            <mxPoint x="220" y="144" as="sourcePoint" />
            <mxPoint x="220" y="30" as="targetPoint" />
          </mxGeometry>
        </mxCell>
        <mxCell id="YUPSVHvtMBNqmdSm2EEL-4" value="CFW" style="edgeLabel;html=1;align=center;verticalAlign=middle;resizable=0;points=[];" parent="YUPSVHvtMBNqmdSm2EEL-3" vertex="1" connectable="0">
          <mxGeometry x="0.9" y="-3" relative="1" as="geometry">
            <mxPoint x="-3" y="-16" as="offset" />
          </mxGeometry>
        </mxCell>
        <mxCell id="YUPSVHvtMBNqmdSm2EEL-6" value="google.com" style="ellipse;shape=cloud;whiteSpace=wrap;html=1;" parent="1" vertex="1">
          <mxGeometry x="360" y="46.5" width="80" height="65" as="geometry" />
        </mxCell>
        <mxCell id="YUPSVHvtMBNqmdSm2EEL-20" value="" style="verticalLabelPosition=bottom;verticalAlign=top;html=1;shape=mxgraph.basic.x;fillColor=#FF0000;" parent="1" vertex="1">
          <mxGeometry x="250" y="69" width="20" height="20" as="geometry" />
        </mxCell>
        <mxCell id="YUPSVHvtMBNqmdSm2EEL-24" value="1、DNS污染&lt;br&gt;2、IP阻断" style="text;html=1;strokeColor=default;fillColor=none;align=left;verticalAlign=top;whiteSpace=wrap;rounded=0;dashed=1;" parent="1" vertex="1">
          <mxGeometry x="520" y="40" width="100" height="43.5" as="geometry" />
        </mxCell>
        <mxCell id="YUPSVHvtMBNqmdSm2EEL-25" value="&lt;a href=&quot;https://www.he.net/3d-map/&quot;&gt;HE 3D Network Map&lt;/a&gt;&lt;br&gt;&lt;a href=&quot;https://www.submarinecablemap.com/&quot;&gt;Submarine Cable Map&lt;/a&gt;" style="text;html=1;strokeColor=none;fillColor=none;align=left;verticalAlign=top;whiteSpace=wrap;rounded=0;" parent="1" vertex="1">
          <mxGeometry x="660" y="40" width="167" height="40" as="geometry" />
        </mxCell>
        <mxCell id="oHY6OjrrleP0fNkC7zTL-1" value="User" style="shape=umlActor;verticalLabelPosition=bottom;verticalAlign=top;html=1;outlineConnect=0;" parent="1" vertex="1">
          <mxGeometry x="60" y="236.5" width="20" height="45" as="geometry" />
        </mxCell>
        <mxCell id="oHY6OjrrleP0fNkC7zTL-2" style="edgeStyle=none;rounded=0;orthogonalLoop=1;jettySize=auto;html=1;exitX=1;exitY=0.5;exitDx=0;exitDy=0;" parent="1" source="oHY6OjrrleP0fNkC7zTL-3" target="oHY6OjrrleP0fNkC7zTL-6" edge="1">
          <mxGeometry relative="1" as="geometry" />
        </mxCell>
        <mxCell id="oHY6OjrrleP0fNkC7zTL-9" style="edgeStyle=none;rounded=0;orthogonalLoop=1;jettySize=auto;html=1;exitX=1;exitY=0.5;exitDx=0;exitDy=0;entryX=0;entryY=0.5;entryDx=0;entryDy=0;" parent="1" source="oHY6OjrrleP0fNkC7zTL-3" target="oHY6OjrrleP0fNkC7zTL-8" edge="1">
          <mxGeometry relative="1" as="geometry" />
        </mxCell>
        <mxCell id="oHY6OjrrleP0fNkC7zTL-3" value="浏览器" style="ellipse;whiteSpace=wrap;html=1;aspect=fixed;" parent="1" vertex="1">
          <mxGeometry x="120" y="234" width="50" height="50" as="geometry" />
        </mxCell>
        <mxCell id="oHY6OjrrleP0fNkC7zTL-4" value="" style="shape=link;html=1;rounded=0;dashed=1;" parent="1" edge="1">
          <mxGeometry width="100" relative="1" as="geometry">
            <mxPoint x="220" y="330" as="sourcePoint" />
            <mxPoint x="220" y="210" as="targetPoint" />
          </mxGeometry>
        </mxCell>
        <mxCell id="oHY6OjrrleP0fNkC7zTL-5" value="CFW" style="edgeLabel;html=1;align=center;verticalAlign=middle;resizable=0;points=[];" parent="oHY6OjrrleP0fNkC7zTL-4" vertex="1" connectable="0">
          <mxGeometry x="0.9" y="-3" relative="1" as="geometry">
            <mxPoint x="-3" y="-16" as="offset" />
          </mxGeometry>
        </mxCell>
        <mxCell id="oHY6OjrrleP0fNkC7zTL-6" value="google.com" style="ellipse;shape=cloud;whiteSpace=wrap;html=1;" parent="1" vertex="1">
          <mxGeometry x="360" y="226.5" width="80" height="65" as="geometry" />
        </mxCell>
        <mxCell id="oHY6OjrrleP0fNkC7zTL-7" value="" style="verticalLabelPosition=bottom;verticalAlign=top;html=1;shape=mxgraph.basic.x;fillColor=#FF0000;" parent="1" vertex="1">
          <mxGeometry x="250" y="249" width="20" height="20" as="geometry" />
        </mxCell>
        <mxCell id="oHY6OjrrleP0fNkC7zTL-10" style="edgeStyle=none;rounded=0;orthogonalLoop=1;jettySize=auto;html=1;exitX=1;exitY=0.5;exitDx=0;exitDy=0;entryX=0.13;entryY=0.77;entryDx=0;entryDy=0;entryPerimeter=0;" parent="1" source="oHY6OjrrleP0fNkC7zTL-8" target="oHY6OjrrleP0fNkC7zTL-6" edge="1">
          <mxGeometry relative="1" as="geometry" />
        </mxCell>
        <mxCell id="oHY6OjrrleP0fNkC7zTL-8" value="服务器" style="rounded=1;whiteSpace=wrap;html=1;" parent="1" vertex="1">
          <mxGeometry x="250" y="310" width="60" height="30" as="geometry" />
        </mxCell>
      </root>
    </mxGraphModel>
  </diagram>
  <diagram id="x5_3c0Z84kzLqOnr2BxT" name="第 3 页">
    <mxGraphModel dx="1426" dy="751" grid="1" gridSize="10" guides="1" tooltips="1" connect="1" arrows="1" fold="1" page="1" pageScale="1" pageWidth="827" pageHeight="1169" math="0" shadow="0">
      <root>
        <mxCell id="0" />
        <mxCell id="1" parent="0" />
        <mxCell id="E6obf_uZLvEFAAoiTC3I-1" value="用户" style="shape=umlActor;verticalLabelPosition=bottom;verticalAlign=top;html=1;outlineConnect=0;" parent="1" vertex="1">
          <mxGeometry x="70" y="192.5" width="20" height="45" as="geometry" />
        </mxCell>
        <mxCell id="E6obf_uZLvEFAAoiTC3I-2" value="" style="shape=link;html=1;rounded=0;dashed=1;" parent="1" edge="1">
          <mxGeometry width="100" relative="1" as="geometry">
            <mxPoint x="300" y="410" as="sourcePoint" />
            <mxPoint x="300" y="30" as="targetPoint" />
          </mxGeometry>
        </mxCell>
        <mxCell id="E6obf_uZLvEFAAoiTC3I-3" value="CFW" style="edgeLabel;html=1;align=center;verticalAlign=middle;resizable=0;points=[];" parent="E6obf_uZLvEFAAoiTC3I-2" vertex="1" connectable="0">
          <mxGeometry x="0.9" y="-3" relative="1" as="geometry">
            <mxPoint x="-3" y="-29" as="offset" />
          </mxGeometry>
        </mxCell>
        <mxCell id="E6obf_uZLvEFAAoiTC3I-4" style="rounded=0;orthogonalLoop=1;jettySize=auto;html=1;exitX=1;exitY=0.5;exitDx=0;exitDy=0;entryX=0;entryY=0.5;entryDx=0;entryDy=0;startArrow=none;startFill=0;strokeColor=#0000FF;" parent="1" source="E6obf_uZLvEFAAoiTC3I-5" target="E6obf_uZLvEFAAoiTC3I-8" edge="1">
          <mxGeometry relative="1" as="geometry" />
        </mxCell>
        <mxCell id="E6obf_uZLvEFAAoiTC3I-5" value="客户端" style="ellipse;whiteSpace=wrap;html=1;aspect=fixed;" parent="1" vertex="1">
          <mxGeometry x="130" y="190" width="50" height="50" as="geometry" />
        </mxCell>
        <mxCell id="E6obf_uZLvEFAAoiTC3I-6" value="节点" style="ellipse;whiteSpace=wrap;html=1;aspect=fixed;" parent="1" vertex="1">
          <mxGeometry x="380" y="70" width="50" height="50" as="geometry" />
        </mxCell>
        <mxCell id="E6obf_uZLvEFAAoiTC3I-7" style="rounded=0;orthogonalLoop=1;jettySize=auto;html=1;exitX=1;exitY=0.5;exitDx=0;exitDy=0;entryX=0;entryY=0.5;entryDx=0;entryDy=0;endArrow=none;endFill=0;dashed=1;startArrow=classic;startFill=1;" parent="1" source="E6obf_uZLvEFAAoiTC3I-8" target="E6obf_uZLvEFAAoiTC3I-15" edge="1">
          <mxGeometry relative="1" as="geometry" />
        </mxCell>
        <mxCell id="5RuRGB0BmAV9DyBmkKYO-8" value="配置" style="edgeLabel;html=1;align=center;verticalAlign=middle;resizable=0;points=[];" parent="E6obf_uZLvEFAAoiTC3I-7" vertex="1" connectable="0">
          <mxGeometry x="-0.2047" y="1" relative="1" as="geometry">
            <mxPoint as="offset" />
          </mxGeometry>
        </mxCell>
        <mxCell id="5RuRGB0BmAV9DyBmkKYO-2" style="edgeStyle=none;rounded=0;orthogonalLoop=1;jettySize=auto;html=1;exitX=1;exitY=0.5;exitDx=0;exitDy=0;entryX=0.13;entryY=0.77;entryDx=0;entryDy=0;entryPerimeter=0;strokeColor=#0000FF;" parent="1" source="E6obf_uZLvEFAAoiTC3I-8" target="5RuRGB0BmAV9DyBmkKYO-1" edge="1">
          <mxGeometry relative="1" as="geometry" />
        </mxCell>
        <mxCell id="E6obf_uZLvEFAAoiTC3I-8" value="节点" style="ellipse;whiteSpace=wrap;html=1;aspect=fixed;" parent="1" vertex="1">
          <mxGeometry x="380" y="130" width="50" height="50" as="geometry" />
        </mxCell>
        <mxCell id="E6obf_uZLvEFAAoiTC3I-9" value="节点" style="ellipse;whiteSpace=wrap;html=1;aspect=fixed;" parent="1" vertex="1">
          <mxGeometry x="380" y="190" width="50" height="50" as="geometry" />
        </mxCell>
        <mxCell id="E6obf_uZLvEFAAoiTC3I-10" value="节点" style="ellipse;whiteSpace=wrap;html=1;aspect=fixed;" parent="1" vertex="1">
          <mxGeometry x="380" y="250" width="50" height="50" as="geometry" />
        </mxCell>
        <mxCell id="E6obf_uZLvEFAAoiTC3I-11" value="节点" style="ellipse;whiteSpace=wrap;html=1;aspect=fixed;" parent="1" vertex="1">
          <mxGeometry x="380" y="310" width="50" height="50" as="geometry" />
        </mxCell>
        <mxCell id="E6obf_uZLvEFAAoiTC3I-12" style="rounded=0;orthogonalLoop=1;jettySize=auto;html=1;exitX=0;exitY=0.5;exitDx=0;exitDy=0;entryX=1;entryY=0.5;entryDx=0;entryDy=0;startArrow=none;startFill=0;endArrow=classic;endFill=1;dashed=1;" parent="1" source="E6obf_uZLvEFAAoiTC3I-15" target="E6obf_uZLvEFAAoiTC3I-6" edge="1">
          <mxGeometry relative="1" as="geometry" />
        </mxCell>
        <mxCell id="E6obf_uZLvEFAAoiTC3I-13" style="rounded=0;orthogonalLoop=1;jettySize=auto;html=1;exitX=0;exitY=0.5;exitDx=0;exitDy=0;entryX=1;entryY=0.5;entryDx=0;entryDy=0;endArrow=classic;endFill=1;dashed=1;" parent="1" source="E6obf_uZLvEFAAoiTC3I-15" target="E6obf_uZLvEFAAoiTC3I-9" edge="1">
          <mxGeometry relative="1" as="geometry" />
        </mxCell>
        <mxCell id="E6obf_uZLvEFAAoiTC3I-14" style="rounded=0;orthogonalLoop=1;jettySize=auto;html=1;exitX=0;exitY=0.5;exitDx=0;exitDy=0;entryX=1;entryY=0.5;entryDx=0;entryDy=0;endArrow=classic;endFill=1;dashed=1;" parent="1" source="E6obf_uZLvEFAAoiTC3I-15" target="E6obf_uZLvEFAAoiTC3I-10" edge="1">
          <mxGeometry relative="1" as="geometry" />
        </mxCell>
        <mxCell id="jJ_EdkT0T2K2mvBZRzjF-2" style="rounded=0;orthogonalLoop=1;jettySize=auto;html=1;exitX=1;exitY=1;exitDx=0;exitDy=0;entryX=0.07;entryY=0.4;entryDx=0;entryDy=0;entryPerimeter=0;dashed=1;endArrow=none;endFill=0;startArrow=classic;startFill=1;" edge="1" parent="1" source="E6obf_uZLvEFAAoiTC3I-15" target="jJ_EdkT0T2K2mvBZRzjF-1">
          <mxGeometry relative="1" as="geometry" />
        </mxCell>
        <mxCell id="E6obf_uZLvEFAAoiTC3I-15" value="Core" style="ellipse;whiteSpace=wrap;html=1;aspect=fixed;" parent="1" vertex="1">
          <mxGeometry x="542" y="190" width="50" height="50" as="geometry" />
        </mxCell>
        <mxCell id="E6obf_uZLvEFAAoiTC3I-16" value="" style="endArrow=classic;startArrow=none;html=1;rounded=0;exitX=1;exitY=0.68;exitDx=0;exitDy=0;exitPerimeter=0;startFill=0;endFill=1;entryX=0;entryY=0.5;entryDx=0;entryDy=0;dashed=1;" parent="1" source="E6obf_uZLvEFAAoiTC3I-11" target="E6obf_uZLvEFAAoiTC3I-15" edge="1">
          <mxGeometry width="50" height="50" relative="1" as="geometry">
            <mxPoint x="390" y="650" as="sourcePoint" />
            <mxPoint x="540" y="210" as="targetPoint" />
          </mxGeometry>
        </mxCell>
        <mxCell id="E6obf_uZLvEFAAoiTC3I-17" style="rounded=0;orthogonalLoop=1;jettySize=auto;html=1;exitX=0.16;exitY=0.55;exitDx=0;exitDy=0;exitPerimeter=0;entryX=1;entryY=0.5;entryDx=0;entryDy=0;startArrow=none;startFill=0;dashed=1;endArrow=classic;endFill=1;" parent="1" source="E6obf_uZLvEFAAoiTC3I-18" target="E6obf_uZLvEFAAoiTC3I-15" edge="1">
          <mxGeometry relative="1" as="geometry" />
        </mxCell>
        <mxCell id="5RuRGB0BmAV9DyBmkKYO-4" value="Text" style="edgeLabel;html=1;align=center;verticalAlign=middle;resizable=0;points=[];" parent="E6obf_uZLvEFAAoiTC3I-17" vertex="1" connectable="0">
          <mxGeometry x="0.2075" y="-2" relative="1" as="geometry">
            <mxPoint as="offset" />
          </mxGeometry>
        </mxCell>
        <mxCell id="5RuRGB0BmAV9DyBmkKYO-5" value="购买" style="edgeLabel;html=1;align=center;verticalAlign=middle;resizable=0;points=[];" parent="E6obf_uZLvEFAAoiTC3I-17" vertex="1" connectable="0">
          <mxGeometry x="0.0972" y="-1" relative="1" as="geometry">
            <mxPoint as="offset" />
          </mxGeometry>
        </mxCell>
        <mxCell id="E6obf_uZLvEFAAoiTC3I-18" value="官网" style="ellipse;shape=cloud;whiteSpace=wrap;html=1;" parent="1" vertex="1">
          <mxGeometry x="670" y="180" width="80" height="65" as="geometry" />
        </mxCell>
        <mxCell id="5RuRGB0BmAV9DyBmkKYO-1" value="Internet" style="ellipse;shape=cloud;whiteSpace=wrap;html=1;" parent="1" vertex="1">
          <mxGeometry x="670" y="55" width="80" height="65" as="geometry" />
        </mxCell>
        <mxCell id="jJ_EdkT0T2K2mvBZRzjF-1" value="后台管理" style="ellipse;shape=cloud;whiteSpace=wrap;html=1;" vertex="1" parent="1">
          <mxGeometry x="670" y="280" width="80" height="65" as="geometry" />
        </mxCell>
      </root>
    </mxGraphModel>
  </diagram>
  <diagram id="eZqn1DMWyU-lijoG0nkl" name="第 2 页">
    <mxGraphModel dx="1426" dy="751" grid="0" gridSize="10" guides="1" tooltips="1" connect="1" arrows="1" fold="1" page="0" pageScale="1" pageWidth="827" pageHeight="1169" math="0" shadow="0">
      <root>
        <mxCell id="0" />
        <mxCell id="1" parent="0" />
        <mxCell id="G0wD3ngTp5WuFTANtmBW-8" value="Server" style="rounded=0;whiteSpace=wrap;html=1;align=center;horizontal=1;verticalAlign=top;labelBackgroundColor=none;fillColor=#E3E3E3;" parent="1" vertex="1">
          <mxGeometry x="640" y="190" width="200" height="70" as="geometry" />
        </mxCell>
        <mxCell id="G0wD3ngTp5WuFTANtmBW-7" value="v2ray" style="rounded=0;whiteSpace=wrap;html=1;align=center;horizontal=1;verticalAlign=top;labelBackgroundColor=none;fillColor=#E3E3E3;" parent="1" vertex="1">
          <mxGeometry x="270" y="190" width="200" height="70" as="geometry" />
        </mxCell>
        <mxCell id="FsdxIIjVopBQ86OKkxWt-1" value="User" style="shape=umlActor;verticalLabelPosition=bottom;verticalAlign=top;html=1;outlineConnect=0;" parent="1" vertex="1">
          <mxGeometry x="70" y="192.5" width="20" height="45" as="geometry" />
        </mxCell>
        <mxCell id="FsdxIIjVopBQ86OKkxWt-10" style="rounded=0;orthogonalLoop=1;jettySize=auto;html=1;exitX=0.5;exitY=1;exitDx=0;exitDy=0;entryX=0.182;entryY=0;entryDx=0;entryDy=0;entryPerimeter=0;" parent="1" source="FsdxIIjVopBQ86OKkxWt-3" target="FsdxIIjVopBQ86OKkxWt-4" edge="1">
          <mxGeometry relative="1" as="geometry">
            <mxPoint x="180" y="310" as="targetPoint" />
          </mxGeometry>
        </mxCell>
        <mxCell id="G0wD3ngTp5WuFTANtmBW-5" value="htttp/https" style="edgeLabel;html=1;align=center;verticalAlign=middle;resizable=0;points=[];" parent="FsdxIIjVopBQ86OKkxWt-10" vertex="1" connectable="0">
          <mxGeometry x="-0.3092" y="-1" relative="1" as="geometry">
            <mxPoint x="1" y="4" as="offset" />
          </mxGeometry>
        </mxCell>
        <mxCell id="FsdxIIjVopBQ86OKkxWt-3" value="浏览器" style="rounded=0;whiteSpace=wrap;html=1;" parent="1" vertex="1">
          <mxGeometry x="140" y="192.5" width="80" height="27.5" as="geometry" />
        </mxCell>
        <mxCell id="FsdxIIjVopBQ86OKkxWt-4" value="系统代理" style="rounded=0;whiteSpace=wrap;html=1;" parent="1" vertex="1">
          <mxGeometry x="140" y="294" width="220" height="30" as="geometry" />
        </mxCell>
        <mxCell id="G0wD3ngTp5WuFTANtmBW-11" style="edgeStyle=none;rounded=0;orthogonalLoop=1;jettySize=auto;html=1;exitX=0.5;exitY=1;exitDx=0;exitDy=0;entryX=0.85;entryY=-0.033;entryDx=0;entryDy=0;entryPerimeter=0;endArrow=none;endFill=0;startArrow=classic;startFill=1;" parent="1" source="FsdxIIjVopBQ86OKkxWt-5" target="FsdxIIjVopBQ86OKkxWt-4" edge="1">
          <mxGeometry relative="1" as="geometry" />
        </mxCell>
        <mxCell id="FsdxIIjVopBQ86OKkxWt-5" value="inbound" style="rounded=0;whiteSpace=wrap;html=1;" parent="1" vertex="1">
          <mxGeometry x="292" y="218" width="70" height="30" as="geometry" />
        </mxCell>
        <mxCell id="FsdxIIjVopBQ86OKkxWt-12" style="edgeStyle=elbowEdgeStyle;rounded=0;orthogonalLoop=1;jettySize=auto;html=1;exitX=1;exitY=0.5;exitDx=0;exitDy=0;entryX=0;entryY=0.5;entryDx=0;entryDy=0;startArrow=none;startFill=0;" parent="1" source="FsdxIIjVopBQ86OKkxWt-6" target="FsdxIIjVopBQ86OKkxWt-7" edge="1">
          <mxGeometry relative="1" as="geometry" />
        </mxCell>
        <mxCell id="G0wD3ngTp5WuFTANtmBW-4" value="v2ray/ssr" style="edgeLabel;html=1;align=center;verticalAlign=middle;resizable=0;points=[];" parent="FsdxIIjVopBQ86OKkxWt-12" vertex="1" connectable="0">
          <mxGeometry x="-0.3386" y="-1" relative="1" as="geometry">
            <mxPoint x="54" y="-1" as="offset" />
          </mxGeometry>
        </mxCell>
        <mxCell id="FsdxIIjVopBQ86OKkxWt-6" value="outbound" style="rounded=0;whiteSpace=wrap;html=1;" parent="1" vertex="1">
          <mxGeometry x="378" y="218" width="66" height="30" as="geometry" />
        </mxCell>
        <mxCell id="FsdxIIjVopBQ86OKkxWt-7" value="inbound" style="rounded=0;whiteSpace=wrap;html=1;" parent="1" vertex="1">
          <mxGeometry x="670" y="220" width="62" height="30" as="geometry" />
        </mxCell>
        <mxCell id="G0wD3ngTp5WuFTANtmBW-3" style="rounded=0;orthogonalLoop=1;jettySize=auto;html=1;exitX=1;exitY=0.5;exitDx=0;exitDy=0;entryX=0.1;entryY=0.538;entryDx=0;entryDy=0;entryPerimeter=0;startArrow=none;startFill=0;" parent="1" source="FsdxIIjVopBQ86OKkxWt-8" target="FsdxIIjVopBQ86OKkxWt-9" edge="1">
          <mxGeometry relative="1" as="geometry" />
        </mxCell>
        <mxCell id="G0wD3ngTp5WuFTANtmBW-6" value="http/https" style="edgeLabel;html=1;align=center;verticalAlign=middle;resizable=0;points=[];" parent="G0wD3ngTp5WuFTANtmBW-3" vertex="1" connectable="0">
          <mxGeometry x="-0.0843" y="-1" relative="1" as="geometry">
            <mxPoint x="14" as="offset" />
          </mxGeometry>
        </mxCell>
        <mxCell id="FsdxIIjVopBQ86OKkxWt-8" value="outbound" style="rounded=0;whiteSpace=wrap;html=1;" parent="1" vertex="1">
          <mxGeometry x="746" y="220" width="64" height="30" as="geometry" />
        </mxCell>
        <mxCell id="FsdxIIjVopBQ86OKkxWt-9" value="google.com" style="ellipse;shape=cloud;whiteSpace=wrap;html=1;" parent="1" vertex="1">
          <mxGeometry x="936" y="194.25" width="120" height="77.5" as="geometry" />
        </mxCell>
        <mxCell id="G0wD3ngTp5WuFTANtmBW-1" value="" style="shape=link;html=1;rounded=0;dashed=1;" parent="1" edge="1">
          <mxGeometry width="100" relative="1" as="geometry">
            <mxPoint x="510" y="340" as="sourcePoint" />
            <mxPoint x="510" y="140" as="targetPoint" />
          </mxGeometry>
        </mxCell>
        <mxCell id="G0wD3ngTp5WuFTANtmBW-2" value="&lt;b&gt;CFW&lt;/b&gt;" style="edgeLabel;html=1;align=center;verticalAlign=middle;resizable=0;points=[];" parent="G0wD3ngTp5WuFTANtmBW-1" vertex="1" connectable="0">
          <mxGeometry x="0.9" y="-3" relative="1" as="geometry">
            <mxPoint x="-3" y="-29" as="offset" />
          </mxGeometry>
        </mxCell>
        <mxCell id="G0wD3ngTp5WuFTANtmBW-12" value="Tips&lt;br&gt;&lt;br&gt;V2ray&lt;br&gt;&amp;nbsp; 1、VMess&lt;br&gt;&amp;nbsp; 2、Sock5&lt;br&gt;&amp;nbsp; 3、Shadowsocks&lt;br&gt;&lt;br&gt;SSR&lt;br&gt;&amp;nbsp; ShadowsocksR" style="text;html=1;strokeColor=default;fillColor=none;align=left;verticalAlign=top;whiteSpace=wrap;rounded=0;dashed=1;" parent="1" vertex="1">
          <mxGeometry x="80" y="458" width="130" height="150" as="geometry" />
        </mxCell>
        <mxCell id="G0wD3ngTp5WuFTANtmBW-13" value="网络层（TCP/IP）(OpenVPN/IPSec)" style="rounded=0;whiteSpace=wrap;html=1;align=left;" parent="1" vertex="1">
          <mxGeometry x="292" y="531" width="260" height="20" as="geometry" />
        </mxCell>
        <mxCell id="G0wD3ngTp5WuFTANtmBW-14" value="传输层（TCP/UDP）" style="rounded=0;whiteSpace=wrap;html=1;align=left;" parent="1" vertex="1">
          <mxGeometry x="292" y="502" width="260" height="20" as="geometry" />
        </mxCell>
        <mxCell id="G0wD3ngTp5WuFTANtmBW-15" value="应用层（VMess/Sock5/ss/ssr）" style="rounded=0;whiteSpace=wrap;html=1;align=left;" parent="1" vertex="1">
          <mxGeometry x="292" y="473" width="260" height="20" as="geometry" />
        </mxCell>
        <mxCell id="G0wD3ngTp5WuFTANtmBW-16" value="数据链路层（PPTP/L2TP）" style="rounded=0;whiteSpace=wrap;html=1;align=left;" parent="1" vertex="1">
          <mxGeometry x="292" y="559" width="260" height="20" as="geometry" />
        </mxCell>
        <mxCell id="G0wD3ngTp5WuFTANtmBW-17" value="物理层" style="rounded=0;whiteSpace=wrap;html=1;align=left;" parent="1" vertex="1">
          <mxGeometry x="292" y="588" width="260" height="20" as="geometry" />
        </mxCell>
      </root>
    </mxGraphModel>
  </diagram>
  <diagram id="wCcYZnrN-2PZaqrmzKcA" name="第 4 页">
    <mxGraphModel dx="1426" dy="751" grid="1" gridSize="10" guides="1" tooltips="1" connect="1" arrows="1" fold="1" page="1" pageScale="1" pageWidth="827" pageHeight="1169" math="0" shadow="0">
      <root>
        <mxCell id="0" />
        <mxCell id="1" parent="0" />
        <mxCell id="K1F7f0PUXyH2FPHIQ5wl-1" value="用户" style="shape=umlActor;verticalLabelPosition=bottom;verticalAlign=top;html=1;outlineConnect=0;" parent="1" vertex="1">
          <mxGeometry x="90" y="72.5" width="20" height="45" as="geometry" />
        </mxCell>
        <mxCell id="K1F7f0PUXyH2FPHIQ5wl-15" style="edgeStyle=orthogonalEdgeStyle;rounded=0;orthogonalLoop=1;jettySize=auto;html=1;exitX=1;exitY=0.5;exitDx=0;exitDy=0;entryX=0;entryY=0.5;entryDx=0;entryDy=0;" parent="1" source="K1F7f0PUXyH2FPHIQ5wl-4" target="K1F7f0PUXyH2FPHIQ5wl-12" edge="1">
          <mxGeometry relative="1" as="geometry" />
        </mxCell>
        <mxCell id="K1F7f0PUXyH2FPHIQ5wl-4" value="浏览器" style="ellipse;whiteSpace=wrap;html=1;aspect=fixed;" parent="1" vertex="1">
          <mxGeometry x="140" y="80" width="50" height="50" as="geometry" />
        </mxCell>
        <mxCell id="K1F7f0PUXyH2FPHIQ5wl-5" value="" style="shape=link;html=1;rounded=0;dashed=1;" parent="1" edge="1">
          <mxGeometry width="100" relative="1" as="geometry">
            <mxPoint x="492" y="135" as="sourcePoint" />
            <mxPoint x="492" y="75" as="targetPoint" />
          </mxGeometry>
        </mxCell>
        <mxCell id="K1F7f0PUXyH2FPHIQ5wl-6" value="CFW" style="edgeLabel;html=1;align=center;verticalAlign=middle;resizable=0;points=[];" parent="K1F7f0PUXyH2FPHIQ5wl-5" vertex="1" connectable="0">
          <mxGeometry x="0.9" y="-3" relative="1" as="geometry">
            <mxPoint x="-3" y="-16" as="offset" />
          </mxGeometry>
        </mxCell>
        <mxCell id="K1F7f0PUXyH2FPHIQ5wl-7" value="google.com" style="ellipse;shape=cloud;whiteSpace=wrap;html=1;" parent="1" vertex="1">
          <mxGeometry x="620" y="72.5" width="80" height="65" as="geometry" />
        </mxCell>
        <mxCell id="K1F7f0PUXyH2FPHIQ5wl-16" style="edgeStyle=orthogonalEdgeStyle;rounded=0;orthogonalLoop=1;jettySize=auto;html=1;exitX=1;exitY=0.5;exitDx=0;exitDy=0;entryX=0;entryY=0.5;entryDx=0;entryDy=0;" parent="1" source="K1F7f0PUXyH2FPHIQ5wl-12" edge="1">
          <mxGeometry relative="1" as="geometry">
            <mxPoint x="330" y="105" as="targetPoint" />
          </mxGeometry>
        </mxCell>
        <mxCell id="K1F7f0PUXyH2FPHIQ5wl-12" value="虚拟Tun网卡" style="rounded=0;whiteSpace=wrap;html=1;" parent="1" vertex="1">
          <mxGeometry x="220" y="86" width="80" height="38" as="geometry" />
        </mxCell>
        <mxCell id="K1F7f0PUXyH2FPHIQ5wl-18" style="edgeStyle=orthogonalEdgeStyle;rounded=0;orthogonalLoop=1;jettySize=auto;html=1;exitX=1;exitY=0.5;exitDx=0;exitDy=0;entryX=0.088;entryY=0.515;entryDx=0;entryDy=0;entryPerimeter=0;" parent="1" target="K1F7f0PUXyH2FPHIQ5wl-7" edge="1">
          <mxGeometry relative="1" as="geometry">
            <mxPoint x="560" y="105" as="sourcePoint" />
          </mxGeometry>
        </mxCell>
        <mxCell id="K1F7f0PUXyH2FPHIQ5wl-23" style="edgeStyle=orthogonalEdgeStyle;rounded=0;orthogonalLoop=1;jettySize=auto;html=1;exitX=0.5;exitY=1;exitDx=0;exitDy=0;entryX=0.5;entryY=0;entryDx=0;entryDy=0;" parent="1" source="K1F7f0PUXyH2FPHIQ5wl-20" target="K1F7f0PUXyH2FPHIQ5wl-22" edge="1">
          <mxGeometry relative="1" as="geometry" />
        </mxCell>
        <mxCell id="K1F7f0PUXyH2FPHIQ5wl-20" value="VP客户端" style="rounded=1;whiteSpace=wrap;html=1;" parent="1" vertex="1">
          <mxGeometry x="330" y="86" width="80" height="40" as="geometry" />
        </mxCell>
        <mxCell id="K1F7f0PUXyH2FPHIQ5wl-21" value="VP服务器" style="rounded=1;whiteSpace=wrap;html=1;" parent="1" vertex="1">
          <mxGeometry x="507" y="85" width="80" height="40" as="geometry" />
        </mxCell>
        <mxCell id="K1F7f0PUXyH2FPHIQ5wl-24" style="edgeStyle=orthogonalEdgeStyle;rounded=0;orthogonalLoop=1;jettySize=auto;html=1;exitX=1;exitY=0.5;exitDx=0;exitDy=0;entryX=0;entryY=0.5;entryDx=0;entryDy=0;" parent="1" source="K1F7f0PUXyH2FPHIQ5wl-22" target="K1F7f0PUXyH2FPHIQ5wl-21" edge="1">
          <mxGeometry relative="1" as="geometry">
            <Array as="points">
              <mxPoint x="440" y="175" />
              <mxPoint x="440" y="105" />
            </Array>
          </mxGeometry>
        </mxCell>
        <mxCell id="JMFK0iF6F9F_1bPsKiel-28" value="国外IP" style="edgeLabel;html=1;align=center;verticalAlign=middle;resizable=0;points=[];" parent="K1F7f0PUXyH2FPHIQ5wl-24" vertex="1" connectable="0">
          <mxGeometry x="0.3054" relative="1" as="geometry">
            <mxPoint as="offset" />
          </mxGeometry>
        </mxCell>
        <mxCell id="JMFK0iF6F9F_1bPsKiel-26" style="edgeStyle=orthogonalEdgeStyle;rounded=0;orthogonalLoop=1;jettySize=auto;html=1;exitX=1;exitY=0.75;exitDx=0;exitDy=0;entryX=0.13;entryY=0.77;entryDx=0;entryDy=0;entryPerimeter=0;" parent="1" source="K1F7f0PUXyH2FPHIQ5wl-22" target="JMFK0iF6F9F_1bPsKiel-25" edge="1">
          <mxGeometry relative="1" as="geometry">
            <Array as="points">
              <mxPoint x="430" y="185" />
              <mxPoint x="430" y="193" />
            </Array>
          </mxGeometry>
        </mxCell>
        <mxCell id="JMFK0iF6F9F_1bPsKiel-27" value="国内IP" style="edgeLabel;html=1;align=center;verticalAlign=middle;resizable=0;points=[];" parent="JMFK0iF6F9F_1bPsKiel-26" vertex="1" connectable="0">
          <mxGeometry x="0.0926" relative="1" as="geometry">
            <mxPoint as="offset" />
          </mxGeometry>
        </mxCell>
        <mxCell id="K1F7f0PUXyH2FPHIQ5wl-22" value="物理网卡" style="rounded=0;whiteSpace=wrap;html=1;" parent="1" vertex="1">
          <mxGeometry x="330" y="156" width="80" height="38" as="geometry" />
        </mxCell>
        <mxCell id="JMFK0iF6F9F_1bPsKiel-1" value="用户" style="shape=umlActor;verticalLabelPosition=bottom;verticalAlign=top;html=1;outlineConnect=0;" parent="1" vertex="1">
          <mxGeometry x="90" y="330" width="20" height="45" as="geometry" />
        </mxCell>
        <mxCell id="JMFK0iF6F9F_1bPsKiel-16" style="edgeStyle=orthogonalEdgeStyle;rounded=0;orthogonalLoop=1;jettySize=auto;html=1;exitX=1;exitY=0.5;exitDx=0;exitDy=0;entryX=0;entryY=0.5;entryDx=0;entryDy=0;" parent="1" source="JMFK0iF6F9F_1bPsKiel-3" target="JMFK0iF6F9F_1bPsKiel-11" edge="1">
          <mxGeometry relative="1" as="geometry" />
        </mxCell>
        <mxCell id="JMFK0iF6F9F_1bPsKiel-3" value="浏览器" style="ellipse;whiteSpace=wrap;html=1;aspect=fixed;" parent="1" vertex="1">
          <mxGeometry x="140" y="338.5" width="50" height="50" as="geometry" />
        </mxCell>
        <mxCell id="JMFK0iF6F9F_1bPsKiel-4" value="" style="shape=link;html=1;rounded=0;dashed=1;" parent="1" edge="1">
          <mxGeometry width="100" relative="1" as="geometry">
            <mxPoint x="490" y="400" as="sourcePoint" />
            <mxPoint x="490" y="330" as="targetPoint" />
          </mxGeometry>
        </mxCell>
        <mxCell id="JMFK0iF6F9F_1bPsKiel-5" value="CFW" style="edgeLabel;html=1;align=center;verticalAlign=middle;resizable=0;points=[];" parent="JMFK0iF6F9F_1bPsKiel-4" vertex="1" connectable="0">
          <mxGeometry x="0.9" y="-3" relative="1" as="geometry">
            <mxPoint x="-3" y="-16" as="offset" />
          </mxGeometry>
        </mxCell>
        <mxCell id="JMFK0iF6F9F_1bPsKiel-6" value="google.com" style="ellipse;shape=cloud;whiteSpace=wrap;html=1;" parent="1" vertex="1">
          <mxGeometry x="620" y="330" width="80" height="65" as="geometry" />
        </mxCell>
        <mxCell id="JMFK0iF6F9F_1bPsKiel-19" style="rounded=0;orthogonalLoop=1;jettySize=auto;html=1;exitX=0;exitY=0.5;exitDx=0;exitDy=0;entryX=0.5;entryY=1;entryDx=0;entryDy=0;dashed=1;" parent="1" source="JMFK0iF6F9F_1bPsKiel-8" target="JMFK0iF6F9F_1bPsKiel-3" edge="1">
          <mxGeometry relative="1" as="geometry" />
        </mxCell>
        <mxCell id="JMFK0iF6F9F_1bPsKiel-20" value="获取" style="edgeLabel;html=1;align=center;verticalAlign=middle;resizable=0;points=[];" parent="JMFK0iF6F9F_1bPsKiel-19" vertex="1" connectable="0">
          <mxGeometry x="-0.098" relative="1" as="geometry">
            <mxPoint as="offset" />
          </mxGeometry>
        </mxCell>
        <mxCell id="JMFK0iF6F9F_1bPsKiel-8" value="系统代理" style="rounded=0;whiteSpace=wrap;html=1;" parent="1" vertex="1">
          <mxGeometry x="220" y="410" width="80" height="38" as="geometry" />
        </mxCell>
        <mxCell id="JMFK0iF6F9F_1bPsKiel-9" style="edgeStyle=orthogonalEdgeStyle;rounded=0;orthogonalLoop=1;jettySize=auto;html=1;exitX=1;exitY=0.5;exitDx=0;exitDy=0;entryX=0.088;entryY=0.515;entryDx=0;entryDy=0;entryPerimeter=0;" parent="1" target="JMFK0iF6F9F_1bPsKiel-6" edge="1">
          <mxGeometry relative="1" as="geometry">
            <mxPoint x="560" y="362.5" as="sourcePoint" />
          </mxGeometry>
        </mxCell>
        <mxCell id="JMFK0iF6F9F_1bPsKiel-15" style="edgeStyle=orthogonalEdgeStyle;rounded=0;orthogonalLoop=1;jettySize=auto;html=1;exitX=1;exitY=0.5;exitDx=0;exitDy=0;entryX=0;entryY=0.5;entryDx=0;entryDy=0;" parent="1" source="JMFK0iF6F9F_1bPsKiel-11" target="JMFK0iF6F9F_1bPsKiel-12" edge="1">
          <mxGeometry relative="1" as="geometry" />
        </mxCell>
        <mxCell id="JMFK0iF6F9F_1bPsKiel-21" value="国外IP" style="edgeLabel;html=1;align=center;verticalAlign=middle;resizable=0;points=[];" parent="JMFK0iF6F9F_1bPsKiel-15" vertex="1" connectable="0">
          <mxGeometry x="0.0515" y="1" relative="1" as="geometry">
            <mxPoint y="1" as="offset" />
          </mxGeometry>
        </mxCell>
        <mxCell id="JMFK0iF6F9F_1bPsKiel-17" style="rounded=0;orthogonalLoop=1;jettySize=auto;html=1;exitX=0.5;exitY=1;exitDx=0;exitDy=0;entryX=1;entryY=0.5;entryDx=0;entryDy=0;dashed=1;" parent="1" source="JMFK0iF6F9F_1bPsKiel-11" target="JMFK0iF6F9F_1bPsKiel-8" edge="1">
          <mxGeometry relative="1" as="geometry" />
        </mxCell>
        <mxCell id="JMFK0iF6F9F_1bPsKiel-18" value="设置" style="edgeLabel;html=1;align=center;verticalAlign=middle;resizable=0;points=[];" parent="JMFK0iF6F9F_1bPsKiel-17" vertex="1" connectable="0">
          <mxGeometry x="0.049" y="3" relative="1" as="geometry">
            <mxPoint as="offset" />
          </mxGeometry>
        </mxCell>
        <mxCell id="JMFK0iF6F9F_1bPsKiel-29" style="edgeStyle=orthogonalEdgeStyle;rounded=0;orthogonalLoop=1;jettySize=auto;html=1;exitX=1;exitY=0.75;exitDx=0;exitDy=0;entryX=0.13;entryY=0.77;entryDx=0;entryDy=0;entryPerimeter=0;" parent="1" source="JMFK0iF6F9F_1bPsKiel-11" target="JMFK0iF6F9F_1bPsKiel-22" edge="1">
          <mxGeometry relative="1" as="geometry">
            <Array as="points">
              <mxPoint x="420" y="374" />
              <mxPoint x="420" y="470" />
            </Array>
          </mxGeometry>
        </mxCell>
        <mxCell id="JMFK0iF6F9F_1bPsKiel-30" value="国内IP" style="edgeLabel;html=1;align=center;verticalAlign=middle;resizable=0;points=[];" parent="JMFK0iF6F9F_1bPsKiel-29" vertex="1" connectable="0">
          <mxGeometry x="0.2959" relative="1" as="geometry">
            <mxPoint as="offset" />
          </mxGeometry>
        </mxCell>
        <mxCell id="JMFK0iF6F9F_1bPsKiel-11" value="VP客户端" style="rounded=1;whiteSpace=wrap;html=1;" parent="1" vertex="1">
          <mxGeometry x="330" y="343.5" width="80" height="40" as="geometry" />
        </mxCell>
        <mxCell id="JMFK0iF6F9F_1bPsKiel-12" value="VP服务器" style="rounded=1;whiteSpace=wrap;html=1;" parent="1" vertex="1">
          <mxGeometry x="507" y="343.5" width="80" height="40" as="geometry" />
        </mxCell>
        <mxCell id="JMFK0iF6F9F_1bPsKiel-22" value="baidu.com" style="ellipse;shape=cloud;whiteSpace=wrap;html=1;" parent="1" vertex="1">
          <mxGeometry x="520" y="420" width="80" height="65" as="geometry" />
        </mxCell>
        <mxCell id="JMFK0iF6F9F_1bPsKiel-25" value="baidu.com" style="ellipse;shape=cloud;whiteSpace=wrap;html=1;" parent="1" vertex="1">
          <mxGeometry x="507" y="142.5" width="80" height="65" as="geometry" />
        </mxCell>
      </root>
    </mxGraphModel>
  </diagram>
</mxfile>
